<svg width="89" height="59" viewBox="0 0 89 59" fill="none" xmlns="http://www.w3.org/2000/svg">
<path d="M66.4568 3.69992C66.4555 4.67757 65.8686 5.61487 64.8252 6.30575L36.3748 25.1661C35.5137 25.7368 34.8306 26.4144 34.3645 27.1601C33.8985 27.9059 33.6586 28.7052 33.6586 29.5124C33.6586 30.3196 33.8985 31.1189 34.3645 31.8647C34.8306 32.6105 35.5137 33.288 36.3748 33.8587L64.7881 52.6945C65.8013 53.39 66.362 54.3214 66.3493 55.2883C66.3367 56.2551 65.7517 57.18 64.7203 57.8637C63.689 58.5474 62.2939 58.9352 60.8354 58.9436C59.3769 58.952 57.9718 58.5803 56.9227 57.9086L28.5095 39.0876C24.689 36.55 22.5433 33.1112 22.5433 29.5259C22.5433 25.9407 24.689 22.5019 28.5095 19.9643L56.9598 1.09162C57.7377 0.57558 58.7291 0.224111 59.8085 0.0816896C60.8878 -0.0607318 62.0066 0.0122958 63.0234 0.291532C64.0401 0.570768 64.909 1.04366 65.5202 1.65038C66.1314 2.25709 66.4573 2.97035 66.4568 3.69992Z" fill="#374957"/>
</svg>
