<svg width="19" height="18" viewBox="0 0 19 18" fill="none" xmlns="http://www.w3.org/2000/svg">
<g clip-path="url(#clip0_1_19)">
<path d="M18.2398 6.6519C17.6241 5.80261 16.8909 5.03528 16.0601 4.37044L18.3019 2.24731C18.7546 1.79324 18.7331 1.07747 18.2538 0.648608C17.7932 0.236493 17.0731 0.236988 16.6132 0.649703L14.0299 3.09776C12.6236 2.43204 11.0712 2.09053 9.4992 2.10103C5.96435 2.13308 2.68195 3.84205 0.758554 6.6519C-0.252851 8.06109 -0.252851 9.91263 0.758554 11.3219C1.37434 12.1711 2.10746 12.9385 2.93834 13.6033L0.696479 15.7287C0.230133 16.1705 0.230133 16.8868 0.696479 17.3285C1.16283 17.7703 1.91892 17.7703 2.38523 17.3285L4.9685 14.8805C6.37478 15.5462 7.92718 15.8877 9.4992 15.8772C13.034 15.8452 16.3164 14.1362 18.2398 11.3264C19.2534 9.91616 19.2534 8.06212 18.2398 6.6519ZM2.72746 10.0447C2.26917 9.40795 2.26917 8.57033 2.72746 7.93362C4.19495 5.72797 6.74715 4.38221 9.4992 4.36291C10.4266 4.35863 11.3474 4.51187 12.2178 4.81528L10.7423 6.21236C9.12399 5.56151 7.25513 6.27678 6.56817 7.80992C6.23071 8.56301 6.23071 9.41371 6.56817 10.1668L4.62873 12.0049C3.89707 11.4432 3.25652 10.7827 2.72746 10.0447ZM16.2709 10.0447C14.8034 12.2503 12.2512 13.5961 9.4992 13.6154C8.57176 13.6196 7.65101 13.4664 6.78062 13.163L8.25609 11.7652C9.87441 12.416 11.7433 11.7008 12.4302 10.1676C12.7677 9.41453 12.7677 8.56382 12.4302 7.81074L14.3697 5.97338C15.1013 6.53513 15.7418 7.19559 16.2709 7.93365C16.7292 8.57033 16.7292 9.40795 16.2709 10.0447Z" fill="#374957"/>
</g>
<defs>
<clipPath id="clip0_1_19">
<rect width="19" height="18" fill="white"/>
</clipPath>
</defs>
</svg>
